<svg height="1500" viewBox="0 0 1500 1500" width="1500" xmlns="http://www.w3.org/2000/svg"><path d="m0 0h1500v1500h-1500z"/><svg height="4410" preserveAspectRatio="xMidYMid meet" transform="matrix(.22675737 0 0 .22675737 580.373421 250.404858)" viewBox="0 0 84 247" width="1500" xmlns="http://www.w3.org/2000/svg" xmlns:xlink="http://www.w3.org/1999/xlink"><g transform="translate(-.10902 -.1)"><svg height="247.2" viewBox="0 0 84.21804023 247.2" width="84.21804"><svg height="247.2" viewBox="0 0 84.21804023 247.2" width="84.21804"><svg height="247.2" viewBox="0 0 84.21804023 247.2" width="84.21804"><svg height="247.2" viewBox="0 0 84.21804023 247.2" width="84.21804"><svg height="247.2" viewBox="0 0 84.21804023 247.2" width="84.21804"><svg height="247.2" viewBox="3.39 -35.94 12.82 37.62" width="84.21804"><path d="m3.39.78 1.22-16.7q.61-8.4.91-12.33.29-3.93.29-3.9.02-.44.05-.74.02-.29.1-.48.07-.2.19-.3.12-.09.37-.14l8.45-2.03q.31-.1.66-.1.34 0 .46.21.12.21.12.84-.17 1.52-.27 2.83-.1 1.32-.16 2.52-.06 1.2-.11 2.31-.04 1.11-.12 2.21-.14 1.19-.25 2.39-.11 1.19-.21 2.48-.1 1.28-.21 2.71-.11 1.42-.26 3.11l-1.07 12.87q-.02.21-.09.42-.06.21-.33.33-.02 0-.29.1-.27.1-.71.26-.44.15-1.02.33-.59.17-1.25.31-1.1.25-1.91.49-.82.25-1.46.45-.63.21-1.17.33-.53.12-1.07.12-.37 0-.61-.19-.25-.2-.25-.71z" fill="#fff"/></svg></svg></svg></svg></svg></svg><path d="m0 0h84.21804v247.2h-84.21804z" fill="none" visibility="hidden"/></g></svg></svg>